<?xml version="1.0" standalone="no"?>
 <!DOCTYPE svg PUBLIC "-//W3C//DTD SVG 1.1//EN" 
 "http://www.w3.org/Graphics/SVG/1.1/DTD/svg11.dtd"> 
<svg
  xmlns:svg="http://www.w3.org/2000/svg"
  xmlns="http://www.w3.org/2000/svg"
  xmlns:xlink="http://www.w3.org/1999/xlink"
  version="1.1"
  width="297.0022mm" height="210.0072mm" viewBox="0.0000 0.0000 297.0022 210.0072">
<title>SVG Image created as transfem-keyboard-F_Cu.svg date 2025/11/07 22:40:00 </title>
  <desc>Image generated by PCBNEW </desc>
<g style="fill:#000000; fill-opacity:1.0000;stroke:#000000; stroke-opacity:1.0000;
stroke-linecap:round; stroke-linejoin:round;"
 transform="translate(0 0) scale(1 1)">
<path style="fill:#000000; fill-opacity:1.0000; stroke:none;fill-rule:evenodd;"
d="M 89.5000,54.3750
89.5000,53.6250
90.5000,53.6250
90.5000,54.3750
Z" /> 
<path style="fill:#000000; fill-opacity:1.0000; stroke:none;fill-rule:evenodd;"
d="M 95.5000,54.3750
95.5000,53.6250
96.5000,53.6250
96.5000,54.3750
Z" /> 
<path style="fill:#000000; fill-opacity:1.0000; stroke:none;fill-rule:evenodd;"
d="M 89.5000,58.0750
89.5000,57.3250
90.5000,57.3250
90.5000,58.0750
Z" /> 
<path style="fill:#000000; fill-opacity:1.0000; stroke:none;fill-rule:evenodd;"
d="M 95.5000,58.0750
95.5000,57.3250
96.5000,57.3250
96.5000,58.0750
Z" /> 
</g>
<g style="fill:#000000; fill-opacity:1.0000; stroke:none;">
<circle cx="67.3423" cy="58.5659" r="0.3250" /> 
</g>
<g style="fill:#000000; fill-opacity:1.0000; stroke:none;">
<circle cx="61.5623" cy="58.5659" r="0.3250" /> 
</g>
<g style="fill:none; 
stroke:#000000; stroke-width:1.0000; stroke-opacity:1; 
stroke-linecap:round; stroke-linejoin:round;">
<path d="M68.7723 59.6159
L68.7723 58.5159
" />
<path d="M68.7723 55.2859
L68.7723 54.4859
" />
<path d="M60.1323 55.2859
L60.1323 54.4859
" />
<path d="M60.1323 59.6159
L60.1323 58.5159
" />
<path style="fill:#000000; fill-opacity:1.0000; stroke:none;fill-rule:evenodd;"
d="M 67.9523,59.0509
67.9523,60.2009
67.3523,60.2009
67.3523,59.0509
Z" /> 
<path style="fill:#000000; fill-opacity:1.0000; stroke:none;fill-rule:evenodd;"
d="M 67.1523,59.0509
67.1523,60.2009
66.5523,60.2009
66.5523,59.0509
Z" /> 
<path style="fill:#000000; fill-opacity:1.0000; stroke:none;fill-rule:evenodd;"
d="M 65.8523,59.0509
65.8523,60.2009
65.5523,60.2009
65.5523,59.0509
Z" /> 
<path style="fill:#000000; fill-opacity:1.0000; stroke:none;fill-rule:evenodd;"
d="M 64.8523,59.0509
64.8523,60.2009
64.5523,60.2009
64.5523,59.0509
Z" /> 
<path style="fill:#000000; fill-opacity:1.0000; stroke:none;fill-rule:evenodd;"
d="M 64.3523,59.0509
64.3523,60.2009
64.0523,60.2009
64.0523,59.0509
Z" /> 
<path style="fill:#000000; fill-opacity:1.0000; stroke:none;fill-rule:evenodd;"
d="M 63.3523,59.0509
63.3523,60.2009
63.0523,60.2009
63.0523,59.0509
Z" /> 
<path style="fill:#000000; fill-opacity:1.0000; stroke:none;fill-rule:evenodd;"
d="M 61.5523,59.0509
61.5523,60.2009
60.9523,60.2009
60.9523,59.0509
Z" /> 
<path style="fill:#000000; fill-opacity:1.0000; stroke:none;fill-rule:evenodd;"
d="M 62.3523,59.0509
62.3523,60.2009
61.7523,60.2009
61.7523,59.0509
Z" /> 
<path style="fill:#000000; fill-opacity:1.0000; stroke:none;fill-rule:evenodd;"
d="M 62.8523,59.0509
62.8523,60.2009
62.5523,60.2009
62.5523,59.0509
Z" /> 
<path style="fill:#000000; fill-opacity:1.0000; stroke:none;fill-rule:evenodd;"
d="M 63.8523,59.0509
63.8523,60.2009
63.5523,60.2009
63.5523,59.0509
Z" /> 
<path style="fill:#000000; fill-opacity:1.0000; stroke:none;fill-rule:evenodd;"
d="M 65.3523,59.0509
65.3523,60.2009
65.0523,60.2009
65.0523,59.0509
Z" /> 
<path style="fill:#000000; fill-opacity:1.0000; stroke:none;fill-rule:evenodd;"
d="M 66.3523,59.0509
66.3523,60.2009
66.0523,60.2009
66.0523,59.0509
Z" /> 
<path style="fill:#000000; fill-opacity:1.0000; stroke:none;fill-rule:evenodd;"
d="M 101.4000,69.3500
101.4190,69.2543
101.4732,69.1732
101.5543,69.1190
101.6500,69.1000
102.3500,69.1000
102.4457,69.1190
102.5268,69.1732
102.5810,69.2543
102.6000,69.3500
102.6000,70.6500
102.5810,70.7457
102.5268,70.8268
102.4457,70.8810
102.3500,70.9000
101.6500,70.9000
101.5543,70.8810
101.4732,70.8268
101.4190,70.7457
101.4000,70.6500
Z" /> 
<path style="fill:#000000; fill-opacity:1.0000; stroke:none;fill-rule:evenodd;"
d="M 95.8000,69.3500
95.8190,69.2543
95.8732,69.1732
95.9543,69.1190
96.0500,69.1000
96.7500,69.1000
96.8457,69.1190
96.9268,69.1732
96.9810,69.2543
97.0000,69.3500
97.0000,70.6500
96.9810,70.7457
96.9268,70.8268
96.8457,70.8810
96.7500,70.9000
96.0500,70.9000
95.9543,70.8810
95.8732,70.8268
95.8190,70.7457
95.8000,70.6500
Z" /> 
<path style="fill:#000000; fill-opacity:1.0000; stroke:none;fill-rule:evenodd;"
d="M 100.4000,65.5000
100.4114,65.4426
100.4439,65.3939
100.4926,65.3614
100.5500,65.3500
100.8500,65.3500
100.9074,65.3614
100.9561,65.3939
100.9886,65.4426
101.0000,65.5000
101.0000,66.7500
100.9886,66.8074
100.9561,66.8561
100.9074,66.8886
100.8500,66.9000
100.5500,66.9000
100.4926,66.8886
100.4439,66.8561
100.4114,66.8074
100.4000,66.7500
Z" /> 
<path style="fill:#000000; fill-opacity:1.0000; stroke:none;fill-rule:evenodd;"
d="M 99.4000,65.5000
99.4114,65.4426
99.4439,65.3939
99.4926,65.3614
99.5500,65.3500
99.8500,65.3500
99.9074,65.3614
99.9561,65.3939
99.9886,65.4426
100.0000,65.5000
100.0000,66.7500
99.9886,66.8074
99.9561,66.8561
99.9074,66.8886
99.8500,66.9000
99.5500,66.9000
99.4926,66.8886
99.4439,66.8561
99.4114,66.8074
99.4000,66.7500
Z" /> 
<path style="fill:#000000; fill-opacity:1.0000; stroke:none;fill-rule:evenodd;"
d="M 98.4000,65.5000
98.4114,65.4426
98.4439,65.3939
98.4926,65.3614
98.5500,65.3500
98.8500,65.3500
98.9074,65.3614
98.9561,65.3939
98.9886,65.4426
99.0000,65.5000
99.0000,66.7500
98.9886,66.8074
98.9561,66.8561
98.9074,66.8886
98.8500,66.9000
98.5500,66.9000
98.4926,66.8886
98.4439,66.8561
98.4114,66.8074
98.4000,66.7500
Z" /> 
<path style="fill:#000000; fill-opacity:1.0000; stroke:none;fill-rule:evenodd;"
d="M 97.4000,65.5000
97.4114,65.4426
97.4439,65.3939
97.4926,65.3614
97.5500,65.3500
97.8500,65.3500
97.9074,65.3614
97.9561,65.3939
97.9886,65.4426
98.0000,65.5000
98.0000,66.7500
97.9886,66.8074
97.9561,66.8561
97.9074,66.8886
97.8500,66.9000
97.5500,66.9000
97.4926,66.8886
97.4439,66.8561
97.4114,66.8074
97.4000,66.7500
Z" /> 
<path style="fill:#000000; fill-opacity:1.0000; stroke:none;fill-rule:evenodd;"
d="M 103.4838,62.9780
103.4264,62.9665
103.3777,62.9340
103.3452,62.8854
103.3338,62.8280
103.3338,62.5280
103.3452,62.4706
103.3777,62.4219
103.4264,62.3894
103.4838,62.3780
104.7338,62.3780
104.7912,62.3894
104.8399,62.4219
104.8724,62.4706
104.8838,62.5280
104.8838,62.8280
104.8724,62.8854
104.8399,62.9340
104.7912,62.9665
104.7338,62.9780
Z" /> 
<path style="fill:#000000; fill-opacity:1.0000; stroke:none;fill-rule:evenodd;"
d="M 103.4838,61.9780
103.4264,61.9665
103.3777,61.9340
103.3452,61.8854
103.3338,61.8280
103.3338,61.5280
103.3452,61.4706
103.3777,61.4219
103.4264,61.3894
103.4838,61.3780
104.7338,61.3780
104.7912,61.3894
104.8399,61.4219
104.8724,61.4706
104.8838,61.5280
104.8838,61.8280
104.8724,61.8854
104.8399,61.9340
104.7912,61.9665
104.7338,61.9780
Z" /> 
<path style="fill:#000000; fill-opacity:1.0000; stroke:none;fill-rule:evenodd;"
d="M 103.4838,60.9780
103.4264,60.9665
103.3777,60.9340
103.3452,60.8854
103.3338,60.8280
103.3338,60.5280
103.3452,60.4706
103.3777,60.4219
103.4264,60.3894
103.4838,60.3780
104.7338,60.3780
104.7912,60.3894
104.8399,60.4219
104.8724,60.4706
104.8838,60.5280
104.8838,60.8280
104.8724,60.8854
104.8399,60.9340
104.7912,60.9665
104.7338,60.9780
Z" /> 
<path style="fill:#000000; fill-opacity:1.0000; stroke:none;fill-rule:evenodd;"
d="M 107.3338,64.5780
107.2381,64.5589
107.1570,64.5047
107.1028,64.4236
107.0838,64.3280
107.0838,63.6280
107.1028,63.5323
107.1570,63.4512
107.2381,63.3970
107.3338,63.3780
108.6338,63.3780
108.7295,63.3970
108.8106,63.4512
108.8648,63.5323
108.8838,63.6280
108.8838,64.3280
108.8648,64.4236
108.8106,64.5047
108.7295,64.5589
108.6338,64.5780
Z" /> 
<path style="fill:#000000; fill-opacity:1.0000; stroke:none;fill-rule:evenodd;"
d="M 107.3338,59.9780
107.2381,59.9589
107.1570,59.9047
107.1028,59.8236
107.0838,59.7280
107.0838,59.0280
107.1028,58.9323
107.1570,58.8512
107.2381,58.7970
107.3338,58.7780
108.6338,58.7780
108.7295,58.7970
108.8106,58.8512
108.8648,58.9323
108.8838,59.0280
108.8838,59.7280
108.8648,59.8236
108.8106,59.9047
108.7295,59.9589
108.6338,59.9780
Z" /> 
<path style="fill:#000000; fill-opacity:1.0000; stroke:none;fill-rule:evenodd;"
d="M 64.9795,64.9777
65.0704,64.9958
65.1475,65.0472
65.1990,65.1243
65.2170,65.2152
65.2170,65.8152
65.1990,65.9061
65.1475,65.9831
65.0704,66.0346
64.9795,66.0527
64.5045,66.0527
64.4137,66.0346
64.3366,65.9831
64.2851,65.9061
64.2670,65.8152
64.2670,65.2152
64.2851,65.1243
64.3366,65.0472
64.4137,64.9958
64.5045,64.9777
Z" /> 
<path style="fill:#000000; fill-opacity:1.0000; stroke:none;fill-rule:evenodd;"
d="M 64.9795,66.7027
65.0704,66.7208
65.1475,66.7722
65.1990,66.8493
65.2170,66.9402
65.2170,67.5402
65.1990,67.6311
65.1475,67.7081
65.0704,67.7596
64.9795,67.7777
64.5045,67.7777
64.4137,67.7596
64.3366,67.7081
64.2851,67.6311
64.2670,67.5402
64.2670,66.9402
64.2851,66.8493
64.3366,66.7722
64.4137,66.7208
64.5045,66.7027
Z" /> 
<path style="fill:#000000; fill-opacity:1.0000; stroke:none;fill-rule:evenodd;"
d="M 86.8321,64.0372
86.7364,64.0182
86.6553,63.9640
86.6011,63.8829
86.5821,63.7872
86.5821,62.1872
86.6011,62.0915
86.6553,62.0104
86.7364,61.9562
86.8321,61.9372
88.1321,61.9372
88.2278,61.9562
88.3089,62.0104
88.3631,62.0915
88.3821,62.1872
88.3821,63.7872
88.3631,63.8829
88.3089,63.9640
88.2278,64.0182
88.1321,64.0372
Z" /> 
<path style="fill:#000000; fill-opacity:1.0000; stroke:none;fill-rule:evenodd;"
d="M 86.8321,61.1372
86.7364,61.1182
86.6553,61.0640
86.6011,60.9829
86.5821,60.8872
86.5821,59.2872
86.6011,59.1915
86.6553,59.1104
86.7364,59.0562
86.8321,59.0372
88.1321,59.0372
88.2278,59.0562
88.3089,59.1104
88.3631,59.1915
88.3821,59.2872
88.3821,60.8872
88.3631,60.9829
88.3089,61.0640
88.2278,61.1182
88.1321,61.1372
Z" /> 
<path style="fill:#000000; fill-opacity:1.0000; stroke:none;fill-rule:evenodd;"
d="M 84.5321,61.1372
84.4364,61.1182
84.3553,61.0640
84.3011,60.9829
84.2821,60.8872
84.2821,59.2872
84.3011,59.1915
84.3553,59.1104
84.4364,59.0562
84.5321,59.0372
85.8321,59.0372
85.9278,59.0562
86.0089,59.1104
86.0631,59.1915
86.0821,59.2872
86.0821,60.8872
86.0631,60.9829
86.0089,61.0640
85.9278,61.1182
85.8321,61.1372
Z" /> 
<path style="fill:#000000; fill-opacity:1.0000; stroke:none;fill-rule:evenodd;"
d="M 84.5321,64.0372
84.4364,64.0182
84.3553,63.9640
84.3011,63.8829
84.2821,63.7872
84.2821,62.1872
84.3011,62.0915
84.3553,62.0104
84.4364,61.9562
84.5321,61.9372
85.8321,61.9372
85.9278,61.9562
86.0089,62.0104
86.0631,62.0915
86.0821,62.1872
86.0821,63.7872
86.0631,63.8829
86.0089,63.9640
85.9278,64.0182
85.8321,64.0372
Z" /> 
</g>
<g style="fill:#000000; fill-opacity:1.0000; stroke:none;">
<circle cx="54.1974" cy="55.4581" r="0.3500" /> 
</g>
<g style="fill:#000000; fill-opacity:1.0000; stroke:none;">
<circle cx="54.6807" cy="54.2914" r="0.3500" /> 
</g>
<g style="fill:#000000; fill-opacity:1.0000; stroke:none;">
<circle cx="54.6807" cy="56.6248" r="0.3500" /> 
</g>
<g style="fill:#000000; fill-opacity:1.0000; stroke:none;">
<circle cx="55.8474" cy="53.8081" r="0.3500" /> 
</g>
<g style="fill:#000000; fill-opacity:1.0000; stroke:none;">
<circle cx="55.8474" cy="55.4581" r="2.2000" /> 
</g>
<g style="fill:#000000; fill-opacity:1.0000; stroke:none;">
<circle cx="55.8474" cy="57.1081" r="0.3500" /> 
</g>
<g style="fill:#000000; fill-opacity:1.0000; stroke:none;">
<circle cx="57.0141" cy="54.2914" r="0.3500" /> 
</g>
<g style="fill:#000000; fill-opacity:1.0000; stroke:none;">
<circle cx="57.0141" cy="56.6248" r="0.3500" /> 
</g>
<g style="fill:#000000; fill-opacity:1.0000; stroke:none;">
<circle cx="57.4974" cy="55.4581" r="0.3500" /> 
</g>
<g style="fill:#000000; fill-opacity:1.0000; stroke:none;">
<circle cx="104.3500" cy="55.6500" r="0.3500" /> 
</g>
<g style="fill:#000000; fill-opacity:1.0000; stroke:none;">
<circle cx="104.8333" cy="54.4833" r="0.3500" /> 
</g>
<g style="fill:#000000; fill-opacity:1.0000; stroke:none;">
<circle cx="104.8333" cy="56.8167" r="0.3500" /> 
</g>
<g style="fill:#000000; fill-opacity:1.0000; stroke:none;">
<circle cx="106.0000" cy="54.0000" r="0.3500" /> 
</g>
<g style="fill:#000000; fill-opacity:1.0000; stroke:none;">
<circle cx="106.0000" cy="55.6500" r="2.2000" /> 
</g>
<g style="fill:#000000; fill-opacity:1.0000; stroke:none;">
<circle cx="106.0000" cy="57.3000" r="0.3500" /> 
</g>
<g style="fill:#000000; fill-opacity:1.0000; stroke:none;">
<circle cx="107.1667" cy="54.4833" r="0.3500" /> 
</g>
<g style="fill:#000000; fill-opacity:1.0000; stroke:none;">
<circle cx="107.1667" cy="56.8167" r="0.3500" /> 
</g>
<g style="fill:#000000; fill-opacity:1.0000; stroke:none;">
<circle cx="107.6500" cy="55.6500" r="0.3500" /> 
<path style="fill:#000000; fill-opacity:1.0000; stroke:none;fill-rule:evenodd;"
d="M 87.1750,54.2375
87.1569,54.3284
87.1054,54.4054
87.0284,54.4569
86.9375,54.4750
86.3375,54.4750
86.2466,54.4569
86.1696,54.4054
86.1181,54.3284
86.1000,54.2375
86.1000,53.7625
86.1181,53.6716
86.1696,53.5946
86.2466,53.5431
86.3375,53.5250
86.9375,53.5250
87.0284,53.5431
87.1054,53.5946
87.1569,53.6716
87.1750,53.7625
Z" /> 
<path style="fill:#000000; fill-opacity:1.0000; stroke:none;fill-rule:evenodd;"
d="M 88.9000,54.2375
88.8819,54.3284
88.8304,54.4054
88.7534,54.4569
88.6625,54.4750
88.0625,54.4750
87.9716,54.4569
87.8946,54.4054
87.8431,54.3284
87.8250,54.2375
87.8250,53.7625
87.8431,53.6716
87.8946,53.5946
87.9716,53.5431
88.0625,53.5250
88.6625,53.5250
88.7534,53.5431
88.8304,53.5946
88.8819,53.6716
88.9000,53.7625
Z" /> 
<path style="fill:#000000; fill-opacity:1.0000; stroke:none;fill-rule:evenodd;"
d="M 61.6848,62.2551
61.7028,62.1642
61.7543,62.0871
61.8314,62.0356
61.9223,62.0176
62.4223,62.0176
62.5131,62.0356
62.5902,62.0871
62.6417,62.1642
62.6598,62.2551
62.6598,62.7301
62.6417,62.8209
62.5902,62.8980
62.5131,62.9495
62.4223,62.9676
61.9223,62.9676
61.8314,62.9495
61.7543,62.8980
61.7028,62.8209
61.6848,62.7301
Z" /> 
<path style="fill:#000000; fill-opacity:1.0000; stroke:none;fill-rule:evenodd;"
d="M 63.5098,62.2551
63.5278,62.1642
63.5793,62.0871
63.6564,62.0356
63.7473,62.0176
64.2473,62.0176
64.3381,62.0356
64.4152,62.0871
64.4667,62.1642
64.4848,62.2551
64.4848,62.7301
64.4667,62.8209
64.4152,62.8980
64.3381,62.9495
64.2473,62.9676
63.7473,62.9676
63.6564,62.9495
63.5793,62.8980
63.5278,62.8209
63.5098,62.7301
Z" /> 
</g>
<g style="fill:#000000; fill-opacity:1.0000; stroke:none;">
<circle cx="104.3318" cy="67.9546" r="0.3500" /> 
</g>
<g style="fill:#000000; fill-opacity:1.0000; stroke:none;">
<circle cx="104.8151" cy="66.7878" r="0.3500" /> 
</g>
<g style="fill:#000000; fill-opacity:1.0000; stroke:none;">
<circle cx="104.8151" cy="69.1213" r="0.3500" /> 
</g>
<g style="fill:#000000; fill-opacity:1.0000; stroke:none;">
<circle cx="105.9818" cy="66.3046" r="0.3500" /> 
</g>
<g style="fill:#000000; fill-opacity:1.0000; stroke:none;">
<circle cx="105.9818" cy="67.9546" r="2.2000" /> 
</g>
<g style="fill:#000000; fill-opacity:1.0000; stroke:none;">
<circle cx="105.9818" cy="69.6046" r="0.3500" /> 
</g>
<g style="fill:#000000; fill-opacity:1.0000; stroke:none;">
<circle cx="107.1485" cy="66.7878" r="0.3500" /> 
</g>
<g style="fill:#000000; fill-opacity:1.0000; stroke:none;">
<circle cx="107.1485" cy="69.1213" r="0.3500" /> 
</g>
<g style="fill:#000000; fill-opacity:1.0000; stroke:none;">
<circle cx="107.6318" cy="67.9546" r="0.3500" /> 
</g>
<g style="fill:#000000; fill-opacity:1.0000; stroke:none;">
<circle cx="54.1833" cy="67.8333" r="0.3500" /> 
</g>
<g style="fill:#000000; fill-opacity:1.0000; stroke:none;">
<circle cx="54.6665" cy="66.6665" r="0.3500" /> 
</g>
<g style="fill:#000000; fill-opacity:1.0000; stroke:none;">
<circle cx="54.6665" cy="69.0000" r="0.3500" /> 
</g>
<g style="fill:#000000; fill-opacity:1.0000; stroke:none;">
<circle cx="55.8333" cy="66.1833" r="0.3500" /> 
</g>
<g style="fill:#000000; fill-opacity:1.0000; stroke:none;">
<circle cx="55.8333" cy="67.8333" r="2.2000" /> 
</g>
<g style="fill:#000000; fill-opacity:1.0000; stroke:none;">
<circle cx="55.8333" cy="69.4833" r="0.3500" /> 
</g>
<g style="fill:#000000; fill-opacity:1.0000; stroke:none;">
<circle cx="57.0000" cy="66.6665" r="0.3500" /> 
</g>
<g style="fill:#000000; fill-opacity:1.0000; stroke:none;">
<circle cx="57.0000" cy="69.0000" r="0.3500" /> 
</g>
<g style="fill:#000000; fill-opacity:1.0000; stroke:none;">
<circle cx="57.4833" cy="67.8333" r="0.3500" /> 
<path style="fill:#000000; fill-opacity:1.0000; stroke:none;fill-rule:evenodd;"
d="M 76.9000,67.2375
76.8819,67.3284
76.8304,67.4054
76.7534,67.4569
76.6625,67.4750
76.1625,67.4750
76.0716,67.4569
75.9946,67.4054
75.9431,67.3284
75.9250,67.2375
75.9250,66.7625
75.9431,66.6716
75.9946,66.5946
76.0716,66.5431
76.1625,66.5250
76.6625,66.5250
76.7534,66.5431
76.8304,66.5946
76.8819,66.6716
76.9000,66.7625
Z" /> 
<path style="fill:#000000; fill-opacity:1.0000; stroke:none;fill-rule:evenodd;"
d="M 75.0750,67.2375
75.0569,67.3284
75.0054,67.4054
74.9284,67.4569
74.8375,67.4750
74.3375,67.4750
74.2466,67.4569
74.1696,67.4054
74.1181,67.3284
74.1000,67.2375
74.1000,66.7625
74.1181,66.6716
74.1696,66.5946
74.2466,66.5431
74.3375,66.5250
74.8375,66.5250
74.9284,66.5431
75.0054,66.5946
75.0569,66.6716
75.0750,66.7625
Z" /> 
<path style="fill:#000000; fill-opacity:1.0000; stroke:none;fill-rule:evenodd;"
d="M 84.7946,57.7997
84.8127,57.7088
84.8642,57.6318
84.9412,57.5803
85.0321,57.5622
85.6321,57.5622
85.7230,57.5803
85.8000,57.6318
85.8515,57.7088
85.8696,57.7997
85.8696,58.2747
85.8515,58.3656
85.8000,58.4426
85.7230,58.4941
85.6321,58.5122
85.0321,58.5122
84.9412,58.4941
84.8642,58.4426
84.8127,58.3656
84.7946,58.2747
Z" /> 
<path style="fill:#000000; fill-opacity:1.0000; stroke:none;fill-rule:evenodd;"
d="M 86.5196,57.7997
86.5377,57.7088
86.5892,57.6318
86.6662,57.5803
86.7571,57.5622
87.3571,57.5622
87.4480,57.5803
87.5250,57.6318
87.5765,57.7088
87.5946,57.7997
87.5946,58.2747
87.5765,58.3656
87.5250,58.4426
87.4480,58.4941
87.3571,58.5122
86.7571,58.5122
86.6662,58.4941
86.5892,58.4426
86.5377,58.3656
86.5196,58.2747
Z" /> 
<path style="fill:#000000; fill-opacity:1.0000; stroke:none;fill-rule:evenodd;"
d="M 64.2295,68.7513
64.2476,68.6604
64.2991,68.5833
64.3762,68.5318
64.4670,68.5138
65.0670,68.5138
65.1579,68.5318
65.2350,68.5833
65.2865,68.6604
65.3045,68.7513
65.3045,69.2263
65.2865,69.3171
65.2350,69.3942
65.1579,69.4457
65.0670,69.4638
64.4670,69.4638
64.3762,69.4457
64.2991,69.3942
64.2476,69.3171
64.2295,69.2263
Z" /> 
<path style="fill:#000000; fill-opacity:1.0000; stroke:none;fill-rule:evenodd;"
d="M 65.9545,68.7513
65.9726,68.6604
66.0241,68.5833
66.1012,68.5318
66.1920,68.5138
66.7920,68.5138
66.8829,68.5318
66.9600,68.5833
67.0115,68.6604
67.0295,68.7513
67.0295,69.2263
67.0115,69.3171
66.9600,69.3942
66.8829,69.4457
66.7920,69.4638
66.1920,69.4638
66.1012,69.4457
66.0241,69.3942
65.9726,69.3171
65.9545,69.2263
Z" /> 
<path style="fill:#000000; fill-opacity:1.0000; stroke:none;fill-rule:evenodd;"
d="M 65.3473,62.2551
65.3653,62.1642
65.4168,62.0871
65.4939,62.0356
65.5848,62.0176
66.0848,62.0176
66.1756,62.0356
66.2527,62.0871
66.3042,62.1642
66.3223,62.2551
66.3223,62.7301
66.3042,62.8209
66.2527,62.8980
66.1756,62.9495
66.0848,62.9676
65.5848,62.9676
65.4939,62.9495
65.4168,62.8980
65.3653,62.8209
65.3473,62.7301
Z" /> 
<path style="fill:#000000; fill-opacity:1.0000; stroke:none;fill-rule:evenodd;"
d="M 67.1723,62.2551
67.1903,62.1642
67.2418,62.0871
67.3189,62.0356
67.4098,62.0176
67.9098,62.0176
68.0006,62.0356
68.0777,62.0871
68.1292,62.1642
68.1473,62.2551
68.1473,62.7301
68.1292,62.8209
68.0777,62.8980
68.0006,62.9495
67.9098,62.9676
67.4098,62.9676
67.3189,62.9495
67.2418,62.8980
67.1903,62.8209
67.1723,62.7301
Z" /> 
<path style="fill:#000000; fill-opacity:1.0000; stroke:none;fill-rule:evenodd;"
d="M 81.0125,67.2375
80.9944,67.3284
80.9429,67.4054
80.8659,67.4569
80.7750,67.4750
80.1750,67.4750
80.0841,67.4569
80.0071,67.4054
79.9556,67.3284
79.9375,67.2375
79.9375,66.7625
79.9556,66.6716
80.0071,66.5946
80.0841,66.5431
80.1750,66.5250
80.7750,66.5250
80.8659,66.5431
80.9429,66.5946
80.9944,66.6716
81.0125,66.7625
Z" /> 
<path style="fill:#000000; fill-opacity:1.0000; stroke:none;fill-rule:evenodd;"
d="M 79.2875,67.2375
79.2694,67.3284
79.2179,67.4054
79.1409,67.4569
79.0500,67.4750
78.4500,67.4750
78.3591,67.4569
78.2821,67.4054
78.2306,67.3284
78.2125,67.2375
78.2125,66.7625
78.2306,66.6716
78.2821,66.5946
78.3591,66.5431
78.4500,66.5250
79.0500,66.5250
79.1409,66.5431
79.2179,66.5946
79.2694,66.6716
79.2875,66.7625
Z" /> 
<path style="fill:#000000; fill-opacity:1.0000; stroke:none;fill-rule:evenodd;"
d="M 63.2920,65.0527
63.3494,65.0641
63.3981,65.0966
63.4306,65.1453
63.4420,65.2027
63.4420,66.2277
63.4306,66.2851
63.3981,66.3337
63.3494,66.3663
63.2920,66.3777
62.9920,66.3777
62.9346,66.3663
62.8860,66.3337
62.8535,66.2851
62.8420,66.2277
62.8420,65.2027
62.8535,65.1453
62.8860,65.0966
62.9346,65.0641
62.9920,65.0527
Z" /> 
<path style="fill:#000000; fill-opacity:1.0000; stroke:none;fill-rule:evenodd;"
d="M 62.3420,65.0527
62.3994,65.0641
62.4481,65.0966
62.4806,65.1453
62.4920,65.2027
62.4920,66.2277
62.4806,66.2851
62.4481,66.3337
62.3994,66.3663
62.3420,66.3777
62.0420,66.3777
61.9846,66.3663
61.9360,66.3337
61.9035,66.2851
61.8920,66.2277
61.8920,65.2027
61.9035,65.1453
61.9360,65.0966
61.9846,65.0641
62.0420,65.0527
Z" /> 
<path style="fill:#000000; fill-opacity:1.0000; stroke:none;fill-rule:evenodd;"
d="M 61.3920,65.0527
61.4494,65.0641
61.4981,65.0966
61.5306,65.1453
61.5420,65.2027
61.5420,66.2277
61.5306,66.2851
61.4981,66.3337
61.4494,66.3663
61.3920,66.3777
61.0920,66.3777
61.0346,66.3663
60.9860,66.3337
60.9535,66.2851
60.9420,66.2277
60.9420,65.2027
60.9535,65.1453
60.9860,65.0966
61.0346,65.0641
61.0920,65.0527
Z" /> 
<path style="fill:#000000; fill-opacity:1.0000; stroke:none;fill-rule:evenodd;"
d="M 61.3920,67.3277
61.4494,67.3391
61.4981,67.3716
61.5306,67.4203
61.5420,67.4777
61.5420,68.5027
61.5306,68.5601
61.4981,68.6087
61.4494,68.6413
61.3920,68.6527
61.0920,68.6527
61.0346,68.6413
60.9860,68.6087
60.9535,68.5601
60.9420,68.5027
60.9420,67.4777
60.9535,67.4203
60.9860,67.3716
61.0346,67.3391
61.0920,67.3277
Z" /> 
<path style="fill:#000000; fill-opacity:1.0000; stroke:none;fill-rule:evenodd;"
d="M 63.2920,67.3277
63.3494,67.3391
63.3981,67.3716
63.4306,67.4203
63.4420,67.4777
63.4420,68.5027
63.4306,68.5601
63.3981,68.6087
63.3494,68.6413
63.2920,68.6527
62.9920,68.6527
62.9346,68.6413
62.8860,68.6087
62.8535,68.5601
62.8420,68.5027
62.8420,67.4777
62.8535,67.4203
62.8860,67.3716
62.9346,67.3391
62.9920,67.3277
Z" /> 
<path style="fill:#000000; fill-opacity:1.0000; stroke:none;fill-rule:evenodd;"
d="M 87.7321,65.2747
87.7140,65.3656
87.6625,65.4426
87.5855,65.4941
87.4946,65.5122
86.8946,65.5122
86.8037,65.4941
86.7267,65.4426
86.6752,65.3656
86.6571,65.2747
86.6571,64.7997
86.6752,64.7088
86.7267,64.6318
86.8037,64.5803
86.8946,64.5622
87.4946,64.5622
87.5855,64.5803
87.6625,64.6318
87.7140,64.7088
87.7321,64.7997
Z" /> 
<path style="fill:#000000; fill-opacity:1.0000; stroke:none;fill-rule:evenodd;"
d="M 86.0071,65.2747
85.9890,65.3656
85.9375,65.4426
85.8605,65.4941
85.7696,65.5122
85.1696,65.5122
85.0787,65.4941
85.0017,65.4426
84.9502,65.3656
84.9321,65.2747
84.9321,64.7997
84.9502,64.7088
85.0017,64.6318
85.0787,64.5803
85.1696,64.5622
85.7696,64.5622
85.8605,64.5803
85.9375,64.6318
85.9890,64.7088
86.0071,64.7997
Z" /> 
<path style="fill:#000000; fill-opacity:1.0000; stroke:none;fill-rule:evenodd;"
d="M 84.7375,56.2625
84.7556,56.1716
84.8071,56.0946
84.8841,56.0431
84.9750,56.0250
85.5750,56.0250
85.6659,56.0431
85.7429,56.0946
85.7944,56.1716
85.8125,56.2625
85.8125,56.7375
85.7944,56.8284
85.7429,56.9054
85.6659,56.9569
85.5750,56.9750
84.9750,56.9750
84.8841,56.9569
84.8071,56.9054
84.7556,56.8284
84.7375,56.7375
Z" /> 
<path style="fill:#000000; fill-opacity:1.0000; stroke:none;fill-rule:evenodd;"
d="M 86.4625,56.2625
86.4806,56.1716
86.5321,56.0946
86.6091,56.0431
86.7000,56.0250
87.3000,56.0250
87.3909,56.0431
87.4679,56.0946
87.5194,56.1716
87.5375,56.2625
87.5375,56.7375
87.5194,56.8284
87.4679,56.9054
87.3909,56.9569
87.3000,56.9750
86.7000,56.9750
86.6091,56.9569
86.5321,56.9054
86.4806,56.8284
86.4625,56.7375
Z" /> 
<path style="fill:#000000; fill-opacity:1.0000; stroke:none;fill-rule:evenodd;"
d="M 97.7375,55.0125
97.8284,55.0306
97.9054,55.0821
97.9569,55.1591
97.9750,55.2500
97.9750,55.7500
97.9569,55.8409
97.9054,55.9179
97.8284,55.9694
97.7375,55.9875
97.2625,55.9875
97.1716,55.9694
97.0946,55.9179
97.0431,55.8409
97.0250,55.7500
97.0250,55.2500
97.0431,55.1591
97.0946,55.0821
97.1716,55.0306
97.2625,55.0125
Z" /> 
<path style="fill:#000000; fill-opacity:1.0000; stroke:none;fill-rule:evenodd;"
d="M 97.7375,56.8375
97.8284,56.8556
97.9054,56.9071
97.9569,56.9841
97.9750,57.0750
97.9750,57.5750
97.9569,57.6659
97.9054,57.7429
97.8284,57.7944
97.7375,57.8125
97.2625,57.8125
97.1716,57.7944
97.0946,57.7429
97.0431,57.6659
97.0250,57.5750
97.0250,57.0750
97.0431,56.9841
97.0946,56.9071
97.1716,56.8556
97.2625,56.8375
Z" /> 
<path style="fill:#000000; fill-opacity:1.0000; stroke:none;fill-rule:evenodd;"
d="M 71.7540,65.6481
71.6631,65.6300
71.5860,65.5785
71.5346,65.5015
71.5165,65.4106
71.5165,64.8106
71.5346,64.7197
71.5860,64.6427
71.6631,64.5912
71.7540,64.5731
72.2290,64.5731
72.3199,64.5912
72.3969,64.6427
72.4484,64.7197
72.4665,64.8106
72.4665,65.4106
72.4484,65.5015
72.3969,65.5785
72.3199,65.6300
72.2290,65.6481
Z" /> 
<path style="fill:#000000; fill-opacity:1.0000; stroke:none;fill-rule:evenodd;"
d="M 71.7540,63.9231
71.6631,63.9050
71.5860,63.8535
71.5346,63.7765
71.5165,63.6856
71.5165,63.0856
71.5346,62.9947
71.5860,62.9177
71.6631,62.8662
71.7540,62.8481
72.2290,62.8481
72.3199,62.8662
72.3969,62.9177
72.4484,62.9947
72.4665,63.0856
72.4665,63.6856
72.4484,63.7765
72.3969,63.8535
72.3199,63.9050
72.2290,63.9231
Z" /> 
<path style="fill:#000000; fill-opacity:1.0000; stroke:none;fill-rule:evenodd;"
d="M 74.2375,54.7625
74.2556,54.6716
74.3071,54.5946
74.3841,54.5431
74.4750,54.5250
75.0750,54.5250
75.1659,54.5431
75.2429,54.5946
75.2944,54.6716
75.3125,54.7625
75.3125,55.2375
75.2944,55.3284
75.2429,55.4054
75.1659,55.4569
75.0750,55.4750
74.4750,55.4750
74.3841,55.4569
74.3071,55.4054
74.2556,55.3284
74.2375,55.2375
Z" /> 
<path style="fill:#000000; fill-opacity:1.0000; stroke:none;fill-rule:evenodd;"
d="M 75.9625,54.7625
75.9806,54.6716
76.0321,54.5946
76.1091,54.5431
76.2000,54.5250
76.8000,54.5250
76.8909,54.5431
76.9679,54.5946
77.0194,54.6716
77.0375,54.7625
77.0375,55.2375
77.0194,55.3284
76.9679,55.4054
76.8909,55.4569
76.8000,55.4750
76.2000,55.4750
76.1091,55.4569
76.0321,55.4054
75.9806,55.3284
75.9625,55.2375
Z" /> 
<path style="fill:#000000; fill-opacity:1.0000; stroke:none;fill-rule:evenodd;"
d="M 81.4865,65.2523
81.5046,65.1614
81.5560,65.0843
81.6331,65.0329
81.7240,65.0148
82.3240,65.0148
82.4149,65.0329
82.4919,65.0843
82.5434,65.1614
82.5615,65.2523
82.5615,65.7273
82.5434,65.8182
82.4919,65.8952
82.4149,65.9467
82.3240,65.9648
81.7240,65.9648
81.6331,65.9467
81.5560,65.8952
81.5046,65.8182
81.4865,65.7273
Z" /> 
<path style="fill:#000000; fill-opacity:1.0000; stroke:none;fill-rule:evenodd;"
d="M 83.2115,65.2523
83.2296,65.1614
83.2810,65.0843
83.3581,65.0329
83.4490,65.0148
84.0490,65.0148
84.1399,65.0329
84.2169,65.0843
84.2684,65.1614
84.2865,65.2523
84.2865,65.7273
84.2684,65.8182
84.2169,65.8952
84.1399,65.9467
84.0490,65.9648
83.4490,65.9648
83.3581,65.9467
83.2810,65.8952
83.2296,65.8182
83.2115,65.7273
Z" /> 
<path style="fill:#000000; fill-opacity:1.0000; stroke:none;fill-rule:evenodd;"
d="M 80.9000,65.8250
80.8943,65.8537
80.8780,65.8780
80.8537,65.8943
80.8250,65.9000
80.6750,65.9000
80.6463,65.8943
80.6220,65.8780
80.6057,65.8537
80.6000,65.8250
80.6000,64.5000
80.6057,64.4713
80.6220,64.4470
80.6463,64.4307
80.6750,64.4250
80.8250,64.4250
80.8537,64.4307
80.8780,64.4470
80.8943,64.4713
80.9000,64.5000
Z" /> 
<path style="fill:#000000; fill-opacity:1.0000; stroke:none;fill-rule:evenodd;"
d="M 80.4000,65.8250
80.3943,65.8537
80.3780,65.8780
80.3537,65.8943
80.3250,65.9000
80.1750,65.9000
80.1463,65.8943
80.1220,65.8780
80.1057,65.8537
80.1000,65.8250
80.1000,64.5000
80.1057,64.4713
80.1220,64.4470
80.1463,64.4307
80.1750,64.4250
80.3250,64.4250
80.3537,64.4307
80.3780,64.4470
80.3943,64.4713
80.4000,64.5000
Z" /> 
<path style="fill:#000000; fill-opacity:1.0000; stroke:none;fill-rule:evenodd;"
d="M 79.9000,65.8250
79.8943,65.8537
79.8780,65.8780
79.8537,65.8943
79.8250,65.9000
79.6750,65.9000
79.6463,65.8943
79.6220,65.8780
79.6057,65.8537
79.6000,65.8250
79.6000,64.5000
79.6057,64.4713
79.6220,64.4470
79.6463,64.4307
79.6750,64.4250
79.8250,64.4250
79.8537,64.4307
79.8780,64.4470
79.8943,64.4713
79.9000,64.5000
Z" /> 
<path style="fill:#000000; fill-opacity:1.0000; stroke:none;fill-rule:evenodd;"
d="M 79.4000,65.8250
79.3943,65.8537
79.3780,65.8780
79.3537,65.8943
79.3250,65.9000
79.1750,65.9000
79.1463,65.8943
79.1220,65.8780
79.1057,65.8537
79.1000,65.8250
79.1000,64.5000
79.1057,64.4713
79.1220,64.4470
79.1463,64.4307
79.1750,64.4250
79.3250,64.4250
79.3537,64.4307
79.3780,64.4470
79.3943,64.4713
79.4000,64.5000
Z" /> 
<path style="fill:#000000; fill-opacity:1.0000; stroke:none;fill-rule:evenodd;"
d="M 78.9000,65.8250
78.8943,65.8537
78.8780,65.8780
78.8537,65.8943
78.8250,65.9000
78.6750,65.9000
78.6463,65.8943
78.6220,65.8780
78.6057,65.8537
78.6000,65.8250
78.6000,64.5000
78.6057,64.4713
78.6220,64.4470
78.6463,64.4307
78.6750,64.4250
78.8250,64.4250
78.8537,64.4307
78.8780,64.4470
78.8943,64.4713
78.9000,64.5000
Z" /> 
<path style="fill:#000000; fill-opacity:1.0000; stroke:none;fill-rule:evenodd;"
d="M 78.4000,65.8250
78.3943,65.8537
78.3780,65.8780
78.3537,65.8943
78.3250,65.9000
78.1750,65.9000
78.1463,65.8943
78.1220,65.8780
78.1057,65.8537
78.1000,65.8250
78.1000,64.5000
78.1057,64.4713
78.1220,64.4470
78.1463,64.4307
78.1750,64.4250
78.3250,64.4250
78.3537,64.4307
78.3780,64.4470
78.3943,64.4713
78.4000,64.5000
Z" /> 
<path style="fill:#000000; fill-opacity:1.0000; stroke:none;fill-rule:evenodd;"
d="M 77.9000,65.8250
77.8943,65.8537
77.8780,65.8780
77.8537,65.8943
77.8250,65.9000
77.6750,65.9000
77.6463,65.8943
77.6220,65.8780
77.6057,65.8537
77.6000,65.8250
77.6000,64.5000
77.6057,64.4713
77.6220,64.4470
77.6463,64.4307
77.6750,64.4250
77.8250,64.4250
77.8537,64.4307
77.8780,64.4470
77.8943,64.4713
77.9000,64.5000
Z" /> 
<path style="fill:#000000; fill-opacity:1.0000; stroke:none;fill-rule:evenodd;"
d="M 77.4000,65.8250
77.3943,65.8537
77.3780,65.8780
77.3537,65.8943
77.3250,65.9000
77.1750,65.9000
77.1463,65.8943
77.1220,65.8780
77.1057,65.8537
77.1000,65.8250
77.1000,64.5000
77.1057,64.4713
77.1220,64.4470
77.1463,64.4307
77.1750,64.4250
77.3250,64.4250
77.3537,64.4307
77.3780,64.4470
77.3943,64.4713
77.4000,64.5000
Z" /> 
<path style="fill:#000000; fill-opacity:1.0000; stroke:none;fill-rule:evenodd;"
d="M 76.9000,65.8250
76.8943,65.8537
76.8780,65.8780
76.8537,65.8943
76.8250,65.9000
76.6750,65.9000
76.6463,65.8943
76.6220,65.8780
76.6057,65.8537
76.6000,65.8250
76.6000,64.5000
76.6057,64.4713
76.6220,64.4470
76.6463,64.4307
76.6750,64.4250
76.8250,64.4250
76.8537,64.4307
76.8780,64.4470
76.8943,64.4713
76.9000,64.5000
Z" /> 
<path style="fill:#000000; fill-opacity:1.0000; stroke:none;fill-rule:evenodd;"
d="M 76.4000,65.8250
76.3943,65.8537
76.3780,65.8780
76.3537,65.8943
76.3250,65.9000
76.1750,65.9000
76.1463,65.8943
76.1220,65.8780
76.1057,65.8537
76.1000,65.8250
76.1000,64.5000
76.1057,64.4713
76.1220,64.4470
76.1463,64.4307
76.1750,64.4250
76.3250,64.4250
76.3537,64.4307
76.3780,64.4470
76.3943,64.4713
76.4000,64.5000
Z" /> 
<path style="fill:#000000; fill-opacity:1.0000; stroke:none;fill-rule:evenodd;"
d="M 75.9000,65.8250
75.8943,65.8537
75.8780,65.8780
75.8537,65.8943
75.8250,65.9000
75.6750,65.9000
75.6463,65.8943
75.6220,65.8780
75.6057,65.8537
75.6000,65.8250
75.6000,64.5000
75.6057,64.4713
75.6220,64.4470
75.6463,64.4307
75.6750,64.4250
75.8250,64.4250
75.8537,64.4307
75.8780,64.4470
75.8943,64.4713
75.9000,64.5000
Z" /> 
<path style="fill:#000000; fill-opacity:1.0000; stroke:none;fill-rule:evenodd;"
d="M 75.4000,65.8250
75.3943,65.8537
75.3780,65.8780
75.3537,65.8943
75.3250,65.9000
75.1750,65.9000
75.1463,65.8943
75.1220,65.8780
75.1057,65.8537
75.1000,65.8250
75.1000,64.5000
75.1057,64.4713
75.1220,64.4470
75.1463,64.4307
75.1750,64.4250
75.3250,64.4250
75.3537,64.4307
75.3780,64.4470
75.3943,64.4713
75.4000,64.5000
Z" /> 
<path style="fill:#000000; fill-opacity:1.0000; stroke:none;fill-rule:evenodd;"
d="M 74.5750,63.8250
74.5693,63.8537
74.5530,63.8780
74.5287,63.8943
74.5000,63.9000
73.1750,63.9000
73.1463,63.8943
73.1220,63.8780
73.1057,63.8537
73.1000,63.8250
73.1000,63.6750
73.1057,63.6463
73.1220,63.6220
73.1463,63.6057
73.1750,63.6000
74.5000,63.6000
74.5287,63.6057
74.5530,63.6220
74.5693,63.6463
74.5750,63.6750
Z" /> 
<path style="fill:#000000; fill-opacity:1.0000; stroke:none;fill-rule:evenodd;"
d="M 74.5750,63.3250
74.5693,63.3537
74.5530,63.3780
74.5287,63.3943
74.5000,63.4000
73.1750,63.4000
73.1463,63.3943
73.1220,63.3780
73.1057,63.3537
73.1000,63.3250
73.1000,63.1750
73.1057,63.1463
73.1220,63.1220
73.1463,63.1057
73.1750,63.1000
74.5000,63.1000
74.5287,63.1057
74.5530,63.1220
74.5693,63.1463
74.5750,63.1750
Z" /> 
<path style="fill:#000000; fill-opacity:1.0000; stroke:none;fill-rule:evenodd;"
d="M 74.5750,62.8250
74.5693,62.8537
74.5530,62.8780
74.5287,62.8943
74.5000,62.9000
73.1750,62.9000
73.1463,62.8943
73.1220,62.8780
73.1057,62.8537
73.1000,62.8250
73.1000,62.6750
73.1057,62.6463
73.1220,62.6220
73.1463,62.6057
73.1750,62.6000
74.5000,62.6000
74.5287,62.6057
74.5530,62.6220
74.5693,62.6463
74.5750,62.6750
Z" /> 
<path style="fill:#000000; fill-opacity:1.0000; stroke:none;fill-rule:evenodd;"
d="M 74.5750,62.3250
74.5693,62.3537
74.5530,62.3780
74.5287,62.3943
74.5000,62.4000
73.1750,62.4000
73.1463,62.3943
73.1220,62.3780
73.1057,62.3537
73.1000,62.3250
73.1000,62.1750
73.1057,62.1463
73.1220,62.1220
73.1463,62.1057
73.1750,62.1000
74.5000,62.1000
74.5287,62.1057
74.5530,62.1220
74.5693,62.1463
74.5750,62.1750
Z" /> 
<path style="fill:#000000; fill-opacity:1.0000; stroke:none;fill-rule:evenodd;"
d="M 74.5750,61.8250
74.5693,61.8537
74.5530,61.8780
74.5287,61.8943
74.5000,61.9000
73.1750,61.9000
73.1463,61.8943
73.1220,61.8780
73.1057,61.8537
73.1000,61.8250
73.1000,61.6750
73.1057,61.6463
73.1220,61.6220
73.1463,61.6057
73.1750,61.6000
74.5000,61.6000
74.5287,61.6057
74.5530,61.6220
74.5693,61.6463
74.5750,61.6750
Z" /> 
<path style="fill:#000000; fill-opacity:1.0000; stroke:none;fill-rule:evenodd;"
d="M 74.5750,61.3250
74.5693,61.3537
74.5530,61.3780
74.5287,61.3943
74.5000,61.4000
73.1750,61.4000
73.1463,61.3943
73.1220,61.3780
73.1057,61.3537
73.1000,61.3250
73.1000,61.1750
73.1057,61.1463
73.1220,61.1220
73.1463,61.1057
73.1750,61.1000
74.5000,61.1000
74.5287,61.1057
74.5530,61.1220
74.5693,61.1463
74.5750,61.1750
Z" /> 
<path style="fill:#000000; fill-opacity:1.0000; stroke:none;fill-rule:evenodd;"
d="M 74.5750,60.8250
74.5693,60.8537
74.5530,60.8780
74.5287,60.8943
74.5000,60.9000
73.1750,60.9000
73.1463,60.8943
73.1220,60.8780
73.1057,60.8537
73.1000,60.8250
73.1000,60.6750
73.1057,60.6463
73.1220,60.6220
73.1463,60.6057
73.1750,60.6000
74.5000,60.6000
74.5287,60.6057
74.5530,60.6220
74.5693,60.6463
74.5750,60.6750
Z" /> 
<path style="fill:#000000; fill-opacity:1.0000; stroke:none;fill-rule:evenodd;"
d="M 74.5750,60.3250
74.5693,60.3537
74.5530,60.3780
74.5287,60.3943
74.5000,60.4000
73.1750,60.4000
73.1463,60.3943
73.1220,60.3780
73.1057,60.3537
73.1000,60.3250
73.1000,60.1750
73.1057,60.1463
73.1220,60.1220
73.1463,60.1057
73.1750,60.1000
74.5000,60.1000
74.5287,60.1057
74.5530,60.1220
74.5693,60.1463
74.5750,60.1750
Z" /> 
<path style="fill:#000000; fill-opacity:1.0000; stroke:none;fill-rule:evenodd;"
d="M 74.5750,59.8250
74.5693,59.8537
74.5530,59.8780
74.5287,59.8943
74.5000,59.9000
73.1750,59.9000
73.1463,59.8943
73.1220,59.8780
73.1057,59.8537
73.1000,59.8250
73.1000,59.6750
73.1057,59.6463
73.1220,59.6220
73.1463,59.6057
73.1750,59.6000
74.5000,59.6000
74.5287,59.6057
74.5530,59.6220
74.5693,59.6463
74.5750,59.6750
Z" /> 
<path style="fill:#000000; fill-opacity:1.0000; stroke:none;fill-rule:evenodd;"
d="M 74.5750,59.3250
74.5693,59.3537
74.5530,59.3780
74.5287,59.3943
74.5000,59.4000
73.1750,59.4000
73.1463,59.3943
73.1220,59.3780
73.1057,59.3537
73.1000,59.3250
73.1000,59.1750
73.1057,59.1463
73.1220,59.1220
73.1463,59.1057
73.1750,59.1000
74.5000,59.1000
74.5287,59.1057
74.5530,59.1220
74.5693,59.1463
74.5750,59.1750
Z" /> 
<path style="fill:#000000; fill-opacity:1.0000; stroke:none;fill-rule:evenodd;"
d="M 74.5750,58.8250
74.5693,58.8537
74.5530,58.8780
74.5287,58.8943
74.5000,58.9000
73.1750,58.9000
73.1463,58.8943
73.1220,58.8780
73.1057,58.8537
73.1000,58.8250
73.1000,58.6750
73.1057,58.6463
73.1220,58.6220
73.1463,58.6057
73.1750,58.6000
74.5000,58.6000
74.5287,58.6057
74.5530,58.6220
74.5693,58.6463
74.5750,58.6750
Z" /> 
<path style="fill:#000000; fill-opacity:1.0000; stroke:none;fill-rule:evenodd;"
d="M 74.5750,58.3250
74.5693,58.3537
74.5530,58.3780
74.5287,58.3943
74.5000,58.4000
73.1750,58.4000
73.1463,58.3943
73.1220,58.3780
73.1057,58.3537
73.1000,58.3250
73.1000,58.1750
73.1057,58.1463
73.1220,58.1220
73.1463,58.1057
73.1750,58.1000
74.5000,58.1000
74.5287,58.1057
74.5530,58.1220
74.5693,58.1463
74.5750,58.1750
Z" /> 
<path style="fill:#000000; fill-opacity:1.0000; stroke:none;fill-rule:evenodd;"
d="M 75.4000,57.5000
75.3943,57.5287
75.3780,57.5530
75.3537,57.5693
75.3250,57.5750
75.1750,57.5750
75.1463,57.5693
75.1220,57.5530
75.1057,57.5287
75.1000,57.5000
75.1000,56.1750
75.1057,56.1463
75.1220,56.1220
75.1463,56.1057
75.1750,56.1000
75.3250,56.1000
75.3537,56.1057
75.3780,56.1220
75.3943,56.1463
75.4000,56.1750
Z" /> 
<path style="fill:#000000; fill-opacity:1.0000; stroke:none;fill-rule:evenodd;"
d="M 75.9000,57.5000
75.8943,57.5287
75.8780,57.5530
75.8537,57.5693
75.8250,57.5750
75.6750,57.5750
75.6463,57.5693
75.6220,57.5530
75.6057,57.5287
75.6000,57.5000
75.6000,56.1750
75.6057,56.1463
75.6220,56.1220
75.6463,56.1057
75.6750,56.1000
75.8250,56.1000
75.8537,56.1057
75.8780,56.1220
75.8943,56.1463
75.9000,56.1750
Z" /> 
<path style="fill:#000000; fill-opacity:1.0000; stroke:none;fill-rule:evenodd;"
d="M 76.4000,57.5000
76.3943,57.5287
76.3780,57.5530
76.3537,57.5693
76.3250,57.5750
76.1750,57.5750
76.1463,57.5693
76.1220,57.5530
76.1057,57.5287
76.1000,57.5000
76.1000,56.1750
76.1057,56.1463
76.1220,56.1220
76.1463,56.1057
76.1750,56.1000
76.3250,56.1000
76.3537,56.1057
76.3780,56.1220
76.3943,56.1463
76.4000,56.1750
Z" /> 
<path style="fill:#000000; fill-opacity:1.0000; stroke:none;fill-rule:evenodd;"
d="M 76.9000,57.5000
76.8943,57.5287
76.8780,57.5530
76.8537,57.5693
76.8250,57.5750
76.6750,57.5750
76.6463,57.5693
76.6220,57.5530
76.6057,57.5287
76.6000,57.5000
76.6000,56.1750
76.6057,56.1463
76.6220,56.1220
76.6463,56.1057
76.6750,56.1000
76.8250,56.1000
76.8537,56.1057
76.8780,56.1220
76.8943,56.1463
76.9000,56.1750
Z" /> 
<path style="fill:#000000; fill-opacity:1.0000; stroke:none;fill-rule:evenodd;"
d="M 77.4000,57.5000
77.3943,57.5287
77.3780,57.5530
77.3537,57.5693
77.3250,57.5750
77.1750,57.5750
77.1463,57.5693
77.1220,57.5530
77.1057,57.5287
77.1000,57.5000
77.1000,56.1750
77.1057,56.1463
77.1220,56.1220
77.1463,56.1057
77.1750,56.1000
77.3250,56.1000
77.3537,56.1057
77.3780,56.1220
77.3943,56.1463
77.4000,56.1750
Z" /> 
<path style="fill:#000000; fill-opacity:1.0000; stroke:none;fill-rule:evenodd;"
d="M 77.9000,57.5000
77.8943,57.5287
77.8780,57.5530
77.8537,57.5693
77.8250,57.5750
77.6750,57.5750
77.6463,57.5693
77.6220,57.5530
77.6057,57.5287
77.6000,57.5000
77.6000,56.1750
77.6057,56.1463
77.6220,56.1220
77.6463,56.1057
77.6750,56.1000
77.8250,56.1000
77.8537,56.1057
77.8780,56.1220
77.8943,56.1463
77.9000,56.1750
Z" /> 
<path style="fill:#000000; fill-opacity:1.0000; stroke:none;fill-rule:evenodd;"
d="M 78.4000,57.5000
78.3943,57.5287
78.3780,57.5530
78.3537,57.5693
78.3250,57.5750
78.1750,57.5750
78.1463,57.5693
78.1220,57.5530
78.1057,57.5287
78.1000,57.5000
78.1000,56.1750
78.1057,56.1463
78.1220,56.1220
78.1463,56.1057
78.1750,56.1000
78.3250,56.1000
78.3537,56.1057
78.3780,56.1220
78.3943,56.1463
78.4000,56.1750
Z" /> 
<path style="fill:#000000; fill-opacity:1.0000; stroke:none;fill-rule:evenodd;"
d="M 78.9000,57.5000
78.8943,57.5287
78.8780,57.5530
78.8537,57.5693
78.8250,57.5750
78.6750,57.5750
78.6463,57.5693
78.6220,57.5530
78.6057,57.5287
78.6000,57.5000
78.6000,56.1750
78.6057,56.1463
78.6220,56.1220
78.6463,56.1057
78.6750,56.1000
78.8250,56.1000
78.8537,56.1057
78.8780,56.1220
78.8943,56.1463
78.9000,56.1750
Z" /> 
<path style="fill:#000000; fill-opacity:1.0000; stroke:none;fill-rule:evenodd;"
d="M 79.4000,57.5000
79.3943,57.5287
79.3780,57.5530
79.3537,57.5693
79.3250,57.5750
79.1750,57.5750
79.1463,57.5693
79.1220,57.5530
79.1057,57.5287
79.1000,57.5000
79.1000,56.1750
79.1057,56.1463
79.1220,56.1220
79.1463,56.1057
79.1750,56.1000
79.3250,56.1000
79.3537,56.1057
79.3780,56.1220
79.3943,56.1463
79.4000,56.1750
Z" /> 
<path style="fill:#000000; fill-opacity:1.0000; stroke:none;fill-rule:evenodd;"
d="M 79.9000,57.5000
79.8943,57.5287
79.8780,57.5530
79.8537,57.5693
79.8250,57.5750
79.6750,57.5750
79.6463,57.5693
79.6220,57.5530
79.6057,57.5287
79.6000,57.5000
79.6000,56.1750
79.6057,56.1463
79.6220,56.1220
79.6463,56.1057
79.6750,56.1000
79.8250,56.1000
79.8537,56.1057
79.8780,56.1220
79.8943,56.1463
79.9000,56.1750
Z" /> 
<path style="fill:#000000; fill-opacity:1.0000; stroke:none;fill-rule:evenodd;"
d="M 80.4000,57.5000
80.3943,57.5287
80.3780,57.5530
80.3537,57.5693
80.3250,57.5750
80.1750,57.5750
80.1463,57.5693
80.1220,57.5530
80.1057,57.5287
80.1000,57.5000
80.1000,56.1750
80.1057,56.1463
80.1220,56.1220
80.1463,56.1057
80.1750,56.1000
80.3250,56.1000
80.3537,56.1057
80.3780,56.1220
80.3943,56.1463
80.4000,56.1750
Z" /> 
<path style="fill:#000000; fill-opacity:1.0000; stroke:none;fill-rule:evenodd;"
d="M 80.9000,57.5000
80.8943,57.5287
80.8780,57.5530
80.8537,57.5693
80.8250,57.5750
80.6750,57.5750
80.6463,57.5693
80.6220,57.5530
80.6057,57.5287
80.6000,57.5000
80.6000,56.1750
80.6057,56.1463
80.6220,56.1220
80.6463,56.1057
80.6750,56.1000
80.8250,56.1000
80.8537,56.1057
80.8780,56.1220
80.8943,56.1463
80.9000,56.1750
Z" /> 
<path style="fill:#000000; fill-opacity:1.0000; stroke:none;fill-rule:evenodd;"
d="M 82.9000,58.3250
82.8943,58.3537
82.8780,58.3780
82.8537,58.3943
82.8250,58.4000
81.5000,58.4000
81.4713,58.3943
81.4470,58.3780
81.4307,58.3537
81.4250,58.3250
81.4250,58.1750
81.4307,58.1463
81.4470,58.1220
81.4713,58.1057
81.5000,58.1000
82.8250,58.1000
82.8537,58.1057
82.8780,58.1220
82.8943,58.1463
82.9000,58.1750
Z" /> 
<path style="fill:#000000; fill-opacity:1.0000; stroke:none;fill-rule:evenodd;"
d="M 82.9000,58.8250
82.8943,58.8537
82.8780,58.8780
82.8537,58.8943
82.8250,58.9000
81.5000,58.9000
81.4713,58.8943
81.4470,58.8780
81.4307,58.8537
81.4250,58.8250
81.4250,58.6750
81.4307,58.6463
81.4470,58.6220
81.4713,58.6057
81.5000,58.6000
82.8250,58.6000
82.8537,58.6057
82.8780,58.6220
82.8943,58.6463
82.9000,58.6750
Z" /> 
<path style="fill:#000000; fill-opacity:1.0000; stroke:none;fill-rule:evenodd;"
d="M 82.9000,59.3250
82.8943,59.3537
82.8780,59.3780
82.8537,59.3943
82.8250,59.4000
81.5000,59.4000
81.4713,59.3943
81.4470,59.3780
81.4307,59.3537
81.4250,59.3250
81.4250,59.1750
81.4307,59.1463
81.4470,59.1220
81.4713,59.1057
81.5000,59.1000
82.8250,59.1000
82.8537,59.1057
82.8780,59.1220
82.8943,59.1463
82.9000,59.1750
Z" /> 
<path style="fill:#000000; fill-opacity:1.0000; stroke:none;fill-rule:evenodd;"
d="M 82.9000,59.8250
82.8943,59.8537
82.8780,59.8780
82.8537,59.8943
82.8250,59.9000
81.5000,59.9000
81.4713,59.8943
81.4470,59.8780
81.4307,59.8537
81.4250,59.8250
81.4250,59.6750
81.4307,59.6463
81.4470,59.6220
81.4713,59.6057
81.5000,59.6000
82.8250,59.6000
82.8537,59.6057
82.8780,59.6220
82.8943,59.6463
82.9000,59.6750
Z" /> 
<path style="fill:#000000; fill-opacity:1.0000; stroke:none;fill-rule:evenodd;"
d="M 82.9000,60.3250
82.8943,60.3537
82.8780,60.3780
82.8537,60.3943
82.8250,60.4000
81.5000,60.4000
81.4713,60.3943
81.4470,60.3780
81.4307,60.3537
81.4250,60.3250
81.4250,60.1750
81.4307,60.1463
81.4470,60.1220
81.4713,60.1057
81.5000,60.1000
82.8250,60.1000
82.8537,60.1057
82.8780,60.1220
82.8943,60.1463
82.9000,60.1750
Z" /> 
<path style="fill:#000000; fill-opacity:1.0000; stroke:none;fill-rule:evenodd;"
d="M 82.9000,60.8250
82.8943,60.8537
82.8780,60.8780
82.8537,60.8943
82.8250,60.9000
81.5000,60.9000
81.4713,60.8943
81.4470,60.8780
81.4307,60.8537
81.4250,60.8250
81.4250,60.6750
81.4307,60.6463
81.4470,60.6220
81.4713,60.6057
81.5000,60.6000
82.8250,60.6000
82.8537,60.6057
82.8780,60.6220
82.8943,60.6463
82.9000,60.6750
Z" /> 
<path style="fill:#000000; fill-opacity:1.0000; stroke:none;fill-rule:evenodd;"
d="M 82.9000,61.3250
82.8943,61.3537
82.8780,61.3780
82.8537,61.3943
82.8250,61.4000
81.5000,61.4000
81.4713,61.3943
81.4470,61.3780
81.4307,61.3537
81.4250,61.3250
81.4250,61.1750
81.4307,61.1463
81.4470,61.1220
81.4713,61.1057
81.5000,61.1000
82.8250,61.1000
82.8537,61.1057
82.8780,61.1220
82.8943,61.1463
82.9000,61.1750
Z" /> 
<path style="fill:#000000; fill-opacity:1.0000; stroke:none;fill-rule:evenodd;"
d="M 82.9000,61.8250
82.8943,61.8537
82.8780,61.8780
82.8537,61.8943
82.8250,61.9000
81.5000,61.9000
81.4713,61.8943
81.4470,61.8780
81.4307,61.8537
81.4250,61.8250
81.4250,61.6750
81.4307,61.6463
81.4470,61.6220
81.4713,61.6057
81.5000,61.6000
82.8250,61.6000
82.8537,61.6057
82.8780,61.6220
82.8943,61.6463
82.9000,61.6750
Z" /> 
<path style="fill:#000000; fill-opacity:1.0000; stroke:none;fill-rule:evenodd;"
d="M 82.9000,62.3250
82.8943,62.3537
82.8780,62.3780
82.8537,62.3943
82.8250,62.4000
81.5000,62.4000
81.4713,62.3943
81.4470,62.3780
81.4307,62.3537
81.4250,62.3250
81.4250,62.1750
81.4307,62.1463
81.4470,62.1220
81.4713,62.1057
81.5000,62.1000
82.8250,62.1000
82.8537,62.1057
82.8780,62.1220
82.8943,62.1463
82.9000,62.1750
Z" /> 
<path style="fill:#000000; fill-opacity:1.0000; stroke:none;fill-rule:evenodd;"
d="M 82.9000,62.8250
82.8943,62.8537
82.8780,62.8780
82.8537,62.8943
82.8250,62.9000
81.5000,62.9000
81.4713,62.8943
81.4470,62.8780
81.4307,62.8537
81.4250,62.8250
81.4250,62.6750
81.4307,62.6463
81.4470,62.6220
81.4713,62.6057
81.5000,62.6000
82.8250,62.6000
82.8537,62.6057
82.8780,62.6220
82.8943,62.6463
82.9000,62.6750
Z" /> 
<path style="fill:#000000; fill-opacity:1.0000; stroke:none;fill-rule:evenodd;"
d="M 82.9000,63.3250
82.8943,63.3537
82.8780,63.3780
82.8537,63.3943
82.8250,63.4000
81.5000,63.4000
81.4713,63.3943
81.4470,63.3780
81.4307,63.3537
81.4250,63.3250
81.4250,63.1750
81.4307,63.1463
81.4470,63.1220
81.4713,63.1057
81.5000,63.1000
82.8250,63.1000
82.8537,63.1057
82.8780,63.1220
82.8943,63.1463
82.9000,63.1750
Z" /> 
<path style="fill:#000000; fill-opacity:1.0000; stroke:none;fill-rule:evenodd;"
d="M 82.9000,63.8250
82.8943,63.8537
82.8780,63.8780
82.8537,63.8943
82.8250,63.9000
81.5000,63.9000
81.4713,63.8943
81.4470,63.8780
81.4307,63.8537
81.4250,63.8250
81.4250,63.6750
81.4307,63.6463
81.4470,63.6220
81.4713,63.6057
81.5000,63.6000
82.8250,63.6000
82.8537,63.6057
82.8780,63.6220
82.8943,63.6463
82.9000,63.6750
Z" /> 
</g>
<g style="fill:#000000; fill-opacity:1.0000; stroke:none;">
<circle cx="73.4000" cy="67.0000" r="0.3000" /> 
</g>
<g style="fill:#000000; fill-opacity:1.0000; stroke:none;">
<circle cx="89.5000" cy="62.5000" r="0.3000" /> 
</g>
<g style="fill:#000000; fill-opacity:1.0000; stroke:none;">
<circle cx="90.0657" cy="63.4000" r="0.3000" /> 
</g>
<g style="fill:#000000; fill-opacity:1.0000; stroke:none;">
<circle cx="78.0138" cy="63.5083" r="0.3000" /> 
</g>
<g style="fill:#000000; fill-opacity:1.0000; stroke:none;">
<circle cx="78.0000" cy="62.0000" r="0.3000" /> 
</g>
<g style="fill:#000000; fill-opacity:1.0000; stroke:none;">
<circle cx="97.5000" cy="67.5000" r="0.3000" /> 
</g>
<g style="fill:#000000; fill-opacity:1.0000; stroke:none;">
<circle cx="80.9482" cy="60.5098" r="0.3000" /> 
</g>
<g style="fill:#000000; fill-opacity:1.0000; stroke:none;">
<circle cx="89.5000" cy="60.5000" r="0.3000" /> 
</g>
<g style="fill:#000000; fill-opacity:1.0000; stroke:none;">
<circle cx="80.5000" cy="59.5000" r="0.3000" /> 
</g>
<g style="fill:#000000; fill-opacity:1.0000; stroke:none;">
<circle cx="89.5000" cy="59.5000" r="0.3000" /> 
</g>
<g style="fill:#000000; fill-opacity:1.0000; stroke:none;">
<circle cx="85.5000" cy="55.0000" r="0.3000" /> 
</g>
<g style="fill:#000000; fill-opacity:1.0000; stroke:none;">
<circle cx="83.5162" cy="60.0162" r="0.3000" /> 
</g>
<g style="fill:#000000; fill-opacity:1.0000; stroke:none;">
<circle cx="80.5000" cy="69.6000" r="0.3000" /> 
</g>
<g style="fill:#000000; fill-opacity:1.0000; stroke:none;">
<circle cx="102.5000" cy="63.0000" r="0.3000" /> 
</g>
<g style="fill:#000000; fill-opacity:1.0000; stroke:none;">
<circle cx="71.0000" cy="65.0000" r="0.3000" /> 
</g>
<g style="fill:#000000; fill-opacity:1.0000; stroke:none;">
<circle cx="72.0000" cy="61.0000" r="0.3000" /> 
</g>
<g style="fill:#000000; fill-opacity:1.0000; stroke:none;">
<circle cx="80.5000" cy="68.4000" r="0.3000" /> 
</g>
<g style="fill:#000000; fill-opacity:1.0000; stroke:none;">
<circle cx="97.0000" cy="54.0000" r="0.3000" /> 
</g>
<g style="fill:#000000; fill-opacity:1.0000; stroke:none;">
<circle cx="61.0000" cy="60.5000" r="0.3000" /> 
</g>
<g style="fill:#000000; fill-opacity:1.0000; stroke:none;">
<circle cx="68.0000" cy="60.5000" r="0.3000" /> 
</g>
<g style="fill:#000000; fill-opacity:1.0000; stroke:none;">
<circle cx="68.4973" cy="62.4926" r="0.3000" /> 
</g>
<g style="fill:#000000; fill-opacity:1.0000; stroke:none;">
<circle cx="65.7420" cy="67.2402" r="0.3000" /> 
</g>
<g style="fill:#000000; fill-opacity:1.0000; stroke:none;">
<circle cx="88.2500" cy="58.0000" r="0.3000" /> 
</g>
<g style="fill:#000000; fill-opacity:1.0000; stroke:none;">
<circle cx="84.7500" cy="65.4898" r="0.3000" /> 
</g>
<g style="fill:#000000; fill-opacity:1.0000; stroke:none;">
<circle cx="78.7500" cy="68.0000" r="0.3000" /> 
</g>
<g style="fill:#000000; fill-opacity:1.0000; stroke:none;">
<circle cx="87.0000" cy="55.5000" r="0.3000" /> 
</g>
<g style="fill:#000000; fill-opacity:1.0000; stroke:none;">
<circle cx="70.7500" cy="63.2500" r="0.3000" /> 
</g>
<g style="fill:#000000; fill-opacity:1.0000; stroke:none;">
<circle cx="63.9973" cy="61.2426" r="0.3000" /> 
</g>
<g style="fill:#000000; fill-opacity:1.0000; stroke:none;">
<circle cx="66.4920" cy="67.9902" r="0.3000" /> 
</g>
<g style="fill:#000000; fill-opacity:1.0000; stroke:none;">
<circle cx="77.7500" cy="55.0000" r="0.3000" /> 
</g>
<g style="fill:#000000; fill-opacity:1.0000; stroke:none;">
<circle cx="62.1420" cy="66.7402" r="0.3000" /> 
</g>
<g style="fill:#000000; fill-opacity:1.0000; stroke:none;">
<circle cx="65.7787" cy="58.6324" r="0.3000" /> 
</g>
<g style="fill:#000000; fill-opacity:1.0000; stroke:none;">
<circle cx="64.9973" cy="62.4926" r="0.3000" /> 
</g>
<g style="fill:#000000; fill-opacity:1.0000; stroke:none;">
<circle cx="89.5000" cy="64.0000" r="0.3000" /> 
</g>
<g style="fill:#000000; fill-opacity:1.0000; stroke:none;">
<circle cx="76.6743" cy="63.1743" r="0.3000" /> 
</g>
<g style="fill:none; 
stroke:#000000; stroke-width:0.2000; stroke-opacity:1; 
stroke-linecap:round; stroke-linejoin:round;">
<path d="M74.5875 67.0000
L73.4000 67.0000
" />
</g>
<g style="fill:none; 
stroke:#000000; stroke-width:0.5000; stroke-opacity:1; 
stroke-linecap:round; stroke-linejoin:round;">
<path d="M71.9915 65.1106
L71.9915 66.9915
" />
<path d="M71.0000 65.0000
L71.0000 65.9986
" />
<path d="M71.0000 65.9986
L67.0838 69.9148
" />
<path d="M67.0838 69.9148
L65.6930 69.9148
" />
<path d="M65.6930 69.9148
L64.7670 68.9888
" />
</g>
<g style="fill:none; 
stroke:#000000; stroke-width:0.2000; stroke-opacity:1; 
stroke-linecap:round; stroke-linejoin:round;">
<path d="M77.5000 62.5000
L77.5000 63.1985
" />
<path d="M78.0000 62.0000
L77.5000 62.5000
" />
<path d="M77.5000 63.1985
L76.7500 63.9485
" />
<path d="M76.7500 63.9485
L76.7500 65.1625
" />
<path d="M97.8500 62.5000
L89.5000 62.5000
" />
<path d="M100.7000 65.3500
L97.8500 62.5000
" />
<path d="M100.7000 66.1250
L100.7000 65.3500
" />
<path d="M97.4000 63.4000
L90.0657 63.4000
" />
<path d="M99.7000 65.7000
L97.4000 63.4000
" />
<path d="M99.7000 66.1250
L99.7000 65.7000
" />
<path d="M77.2500 64.2721
L78.0138 63.5083
" />
<path d="M77.2500 65.1625
L77.2500 64.2721
" />
<path d="M75.2500 65.1625
L75.2500 63.7500
" />
<path d="M75.2500 63.7500
L78.4902 60.5098
" />
<path d="M78.4902 60.5098
L80.9482 60.5098
" />
<path d="M80.5000 59.5000
L78.0000 59.5000
" />
<path d="M78.0000 59.5000
L74.7500 62.7500
" />
<path d="M74.7500 62.7500
L73.8375 62.7500
" />
<path d="M97.7000 67.3000
L97.5000 67.5000
" />
<path d="M97.7000 66.1250
L97.7000 67.3000
" />
<path d="M104.1088 61.6780
L102.6780 61.6780
" />
<path d="M102.6780 61.6780
L101.5000 60.5000
" />
<path d="M101.5000 60.5000
L89.5000 60.5000
" />
<path d="M102.6780 60.6780
L101.5000 59.5000
" />
<path d="M104.1088 60.6780
L102.6780 60.6780
" />
<path d="M101.5000 59.5000
L89.5000 59.5000
" />
<path d="M86.5000 54.0000
L85.5000 55.0000
" />
<path d="M86.6375 54.0000
L86.5000 54.0000
" />
<path d="M83.2824 60.2500
L83.5162 60.0162
" />
<path d="M82.1625 60.2500
L83.2824 60.2500
" />
<path d="M74.5875 67.0000
L74.5875 66.5875
" />
<path d="M76.4125 67.0000
L77.2115 66.2010
" />
<path d="M77.2115 66.2010
L78.4828 66.2010
" />
<path d="M78.4828 66.2010
L78.7500 65.9338
" />
<path d="M78.7500 65.9338
L78.7500 65.1625
" />
<path d="M96.0000 57.7000
L97.1250 57.7000
" />
<path d="M97.1250 57.7000
L97.5000 57.3250
" />
<path d="M90.0000 57.7000
L90.0000 56.5000
" />
<path d="M90.0000 56.5000
L89.5000 56.0000
" />
<path d="M89.5000 56.0000
L89.0000 56.0000
" />
<path d="M89.0000 56.0000
L88.3625 55.3625
" />
<path d="M88.3625 55.3625
L88.3625 54.0000
" />
</g>
<g style="fill:none; 
stroke:#000000; stroke-width:0.5000; stroke-opacity:1; 
stroke-linecap:round; stroke-linejoin:round;">
<path d="M71.9915 66.9915
L74.6000 69.6000
" />
<path d="M74.6000 69.6000
L80.5000 69.6000
" />
</g>
<g style="fill:none; 
stroke:#000000; stroke-width:0.2000; stroke-opacity:1; 
stroke-linecap:round; stroke-linejoin:round;">
<path d="M102.8220 62.6780
L102.5000 63.0000
" />
<path d="M104.1088 62.6780
L102.8220 62.6780
" />
</g>
<g style="fill:none; 
stroke:#000000; stroke-width:0.5000; stroke-opacity:1; 
stroke-linecap:round; stroke-linejoin:round;">
<path d="M72.5000 55.0000
L72.0000 55.5000
" />
<path d="M74.7750 55.0000
L72.5000 55.0000
" />
<path d="M72.0000 55.5000
L72.0000 61.0000
" />
<path d="M71.0000 65.0000
L71.8809 65.0000
" />
<path d="M71.8809 65.0000
L71.9915 65.1106
" />
<path d="M80.5000 68.4000
L80.5000 67.0250
" />
<path d="M80.5000 67.0250
L80.4750 67.0000
" />
<path d="M80.4750 67.0000
L81.0069 67.0000
" />
<path d="M81.0069 67.0000
L82.0240 65.9829
" />
<path d="M82.0240 65.9829
L82.0240 65.4898
" />
</g>
<g style="fill:none; 
stroke:#000000; stroke-width:1.0000; stroke-opacity:1; 
stroke-linecap:round; stroke-linejoin:round;">
<path d="M64.7670 68.9888
L64.1406 68.9888
" />
<path d="M64.1406 68.9888
L63.1420 67.9902
" />
</g>
<g style="fill:none; 
stroke:#000000; stroke-width:0.2000; stroke-opacity:1; 
stroke-linecap:round; stroke-linejoin:round;">
<path d="M90.0000 57.7000
L96.0000 57.7000
" />
<path d="M96.0000 54.0000
L97.0000 54.0000
" />
<path d="M90.0000 54.0000
L96.0000 54.0000
" />
</g>
<g style="fill:none; 
stroke:#000000; stroke-width:0.5000; stroke-opacity:1; 
stroke-linecap:round; stroke-linejoin:round;">
<path d="M61.2420 65.7152
L61.2420 63.0301
" />
<path d="M61.2420 63.0301
L61.2338 63.0218
" />
<path d="M61.2338 63.0218
L61.2338 61.9633
" />
<path d="M61.2338 61.9633
L61.2420 61.9550
" />
<path d="M62.0523 60.5098
L62.0523 59.6259
" />
<path d="M61.2420 61.9550
L61.2420 61.3200
" />
<path d="M61.2420 61.3200
L62.0523 60.5098
" />
</g>
<g style="fill:none; 
stroke:#000000; stroke-width:0.2000; stroke-opacity:1; 
stroke-linecap:round; stroke-linejoin:round;">
<path d="M66.8523 59.6259
L66.6663 59.4399
" />
<path d="M66.6663 59.4399
L66.6663 58.6700
" />
<path d="M66.6663 58.6700
L65.9962 58.0000
" />
<path d="M65.9962 58.0000
L63.0012 58.0000
" />
<path d="M63.0012 58.0000
L62.2513 58.7499
" />
<path d="M62.2513 58.7499
L62.2513 59.4269
" />
<path d="M62.2513 59.4269
L62.0523 59.6259
" />
<path d="M73.8375 61.7500
L71.5682 61.7500
" />
<path d="M71.5682 61.7500
L71.0932 61.2750
" />
<path d="M71.0932 61.2750
L66.0932 61.2750
" />
<path d="M66.0932 61.2750
L65.1773 60.3591
" />
<path d="M65.1773 60.0759
L65.2023 60.0509
" />
<path d="M65.1773 60.3591
L65.1773 60.0759
" />
<path d="M65.2023 60.0509
L65.2023 59.6259
" />
<path d="M64.7023 59.6259
L64.7023 60.0509
" />
<path d="M64.7023 60.0509
L64.7273 60.0759
" />
<path d="M70.9068 61.7250
L71.4318 62.2500
" />
<path d="M64.7273 60.0759
L64.7273 60.5455
" />
<path d="M64.7273 60.5455
L65.8984 61.7166
" />
<path d="M71.4318 62.2500
L73.8375 62.2500
" />
<path d="M65.8984 61.7166
L68.1394 61.7166
" />
<path d="M68.1394 61.7166
L68.1478 61.7250
" />
<path d="M68.1478 61.7250
L70.9068 61.7250
" />
<path d="M63.7023 59.6259
L63.7023 60.4529
" />
<path d="M63.7023 60.4529
L63.7513 60.5019
" />
<path d="M64.7023 60.4529
L64.7023 59.6259
" />
<path d="M63.7513 60.5019
L64.6533 60.5019
" />
<path d="M64.6533 60.5019
L64.7023 60.4529
" />
<path d="M61.2523 60.2477
L61.0000 60.5000
" />
<path d="M61.2523 59.6259
L61.2523 60.2477
" />
<path d="M67.6523 60.1523
L68.0000 60.5000
" />
<path d="M67.6523 59.6259
L67.6523 60.1523
" />
</g>
<g style="fill:none; 
stroke:#000000; stroke-width:0.5000; stroke-opacity:1; 
stroke-linecap:round; stroke-linejoin:round;">
<path d="M63.1420 65.7152
L64.5420 65.7152
" />
<path d="M61.2420 65.7152
L61.2420 65.1486
" />
<path d="M61.7889 64.6017
L62.7535 64.6017
" />
<path d="M62.7535 64.6017
L63.1420 64.9902
" />
<path d="M64.5420 65.7152
L64.7420 65.5152
" />
<path d="M63.1420 64.9902
L63.1420 65.7152
" />
<path d="M61.2420 65.1486
L61.7889 64.6017
" />
</g>
<g style="fill:none; 
stroke:#000000; stroke-width:0.2000; stroke-opacity:1; 
stroke-linecap:round; stroke-linejoin:round;">
<path d="M87.0571 58.0372
L88.2128 58.0372
" />
<path d="M80.2500 65.9338
L79.9598 66.2240
" />
<path d="M88.2128 58.0372
L88.2500 58.0000
" />
<path d="M79.5260 66.2240
L78.7500 67.0000
" />
<path d="M64.7420 67.2402
L65.7420 67.2402
" />
<path d="M78.7500 67.0000
L78.7500 68.0000
" />
<path d="M85.0170 65.4898
L85.4696 65.0372
" />
<path d="M73.8375 63.2500
L72.1271 63.2500
" />
<path d="M83.7490 65.4898
L84.7500 65.4898
" />
<path d="M72.1271 63.2500
L71.9915 63.3856
" />
</g>
<g style="fill:none; 
stroke:#000000; stroke-width:0.5000; stroke-opacity:1; 
stroke-linecap:round; stroke-linejoin:round;">
<path d="M62.1920 65.7152
L62.1920 66.6902
" />
</g>
<g style="fill:none; 
stroke:#000000; stroke-width:0.2000; stroke-opacity:1; 
stroke-linecap:round; stroke-linejoin:round;">
<path d="M75.7500 56.8375
L75.7500 55.7500
" />
</g>
<g style="fill:none; 
stroke:#000000; stroke-width:0.5000; stroke-opacity:1; 
stroke-linecap:round; stroke-linejoin:round;">
<path d="M62.1920 66.6902
L62.1420 66.7402
" />
</g>
<g style="fill:none; 
stroke:#000000; stroke-width:0.2000; stroke-opacity:1; 
stroke-linecap:round; stroke-linejoin:round;">
<path d="M87.0571 58.0372
L87.0571 59.6622
" />
<path d="M79.9598 66.2240
L79.5260 66.2240
" />
<path d="M70.8856 63.3856
L70.7500 63.2500
" />
<path d="M75.7500 55.7500
L76.5000 55.0000
" />
<path d="M87.0571 59.6622
L87.4821 60.0872
" />
<path d="M80.2500 65.1625
L80.2500 65.9338
" />
<path d="M71.9915 63.3856
L70.8856 63.3856
" />
<path d="M85.4696 63.2747
L85.1821 62.9872
" />
<path d="M66.4920 68.9888
L66.4920 67.9902
" />
<path d="M63.9973 62.4926
L63.9973 61.2426
" />
<path d="M87.0000 57.9801
L87.0571 58.0372
" />
<path d="M87.0000 56.5000
L87.0000 55.5000
" />
<path d="M85.4696 65.0372
L85.4696 63.2747
" />
<path d="M76.5000 55.0000
L77.7500 55.0000
" />
<path d="M84.7500 65.4898
L85.0170 65.4898
" />
<path d="M67.5723 62.4926
L68.4973 62.4926
" />
<path d="M83.5000 57.5000
L84.5000 56.5000
" />
<path d="M75.2500 56.8375
L75.2500 55.4750
" />
<path d="M82.9338 59.7500
L83.5000 59.1838
" />
<path d="M83.5000 59.1838
L83.5000 57.5000
" />
<path d="M84.5000 56.5000
L85.2750 56.5000
" />
<path d="M80.7500 65.1625
L80.7500 66.7250
" />
<path d="M73.8375 63.7500
L72.4769 65.1106
" />
<path d="M82.1625 59.7500
L82.9338 59.7500
" />
<path d="M82.1625 63.7500
L82.1625 65.3513
" />
<path d="M65.7023 59.6259
L65.7023 58.7088
" />
<path d="M65.8348 62.4926
L64.9973 62.4926
" />
<path d="M65.7023 58.7088
L65.7787 58.6324
" />
<path d="M62.7023 59.6259
L62.7023 61.9626
" />
<path d="M62.7023 61.9626
L62.1723 62.4926
" />
<path d="M65.2023 58.7989
L65.2023 59.6259
" />
<path d="M64.2023 59.6259
L64.2023 58.7989
" />
<path d="M64.2513 58.7499
L65.1533 58.7499
" />
<path d="M65.1533 58.7499
L65.2023 58.7989
" />
<path d="M64.2023 58.7989
L64.2513 58.7499
" />
<path d="M87.1946 65.0372
L87.1946 63.2747
" />
<path d="M84.1831 61.7500
L84.2969 61.6362
" />
<path d="M82.1625 61.7500
L84.1831 61.7500
" />
<path d="M84.2969 61.6362
L86.1311 61.6362
" />
<path d="M86.1311 61.6362
L87.4821 62.9872
" />
<path d="M87.1946 63.2747
L87.4821 62.9872
" />
<path d="M85.3321 59.9372
L85.1821 60.0872
" />
<path d="M84.3500 60.9193
L84.3500 60.0500
" />
<path d="M84.0193 61.2500
L84.3500 60.9193
" />
<path d="M85.3321 58.0372
L85.3321 59.9372
" />
<path d="M82.1625 61.2500
L84.0193 61.2500
" />
<path d="M76.2500 65.1625
L76.2500 63.5985
" />
<path d="M98.7000 66.1250
L98.7000 65.7080
" />
<path d="M76.2500 63.5985
L76.6743 63.1743
" />
<path d="M96.9920 64.0000
L89.5000 64.0000
" />
<path d="M98.7000 65.7080
L96.9920 64.0000
" />
</g> 
</svg>
